<svg id="Layer_1" data-name="Layer 1" xmlns="http://www.w3.org/2000/svg" viewBox="0 0 18 18"><defs><style>.cls-1{opacity:0.69;}.cls-2{fill:#300f2e;fill-rule:evenodd;}</style></defs><title>in</title><g class="cls-1"><path class="cls-2" d="M336.3,313.91v0l0,0h0Zm6-7.91H327.72a1.71,1.71,0,0,0-1.72,1.71v14.58a1.71,1.71,0,0,0,1.72,1.71h14.56a1.72,1.72,0,0,0,1.72-1.71V307.71A1.71,1.71,0,0,0,342.28,306Zm-11.7,3.42a1.31,1.31,0,0,1,0,2.61h0A1.31,1.31,0,0,1,330.58,309.42ZM332,320.59h-2.57v-7.74H332v7.74Zm9.43,0h-2.54v-4c0-1-.29-1.72-1.21-1.72a1.39,1.39,0,0,0-1.3.91,1.94,1.94,0,0,0-.08.62v4.22h-2.62s0-7.07,0-7.77h2.62v1.06a2.53,2.53,0,0,1,2.28-1.24c1.67,0,2.84,1.29,2.84,3.63v4.33Z" transform="translate(-326 -306)"/></g></svg>